<mxfile host="www.draw.io" modified="2020-03-11T15:50:24.077Z" agent="Mozilla/5.0 (X11; Linux x86_64) AppleWebKit/537.36 (KHTML, like Gecko) Chrome/77.0.3865.120 Safari/537.36" etag="TrJDNEqxn9BZJiUnCWSm" version="12.8.2" type="github">
  <diagram id="XdCngo-K9YWEZwrCoH_z" name="Page-1">
    <mxGraphModel dx="2062" dy="1132" grid="1" gridSize="10" guides="1" tooltips="1" connect="1" arrows="1" fold="1" page="1" pageScale="1" pageWidth="827" pageHeight="1169" math="0" shadow="0">
      <root>
        <mxCell id="0" />
        <mxCell id="1" parent="0" />
        <mxCell id="35pCFbQcWWkVKPk1xscO-1" value="" style="rounded=0;whiteSpace=wrap;html=1;" vertex="1" parent="1">
          <mxGeometry x="90" y="210" width="590" height="240" as="geometry" />
        </mxCell>
        <mxCell id="35pCFbQcWWkVKPk1xscO-2" value="seldon-system" style="text;html=1;strokeColor=none;fillColor=none;align=center;verticalAlign=middle;whiteSpace=wrap;rounded=0;fontStyle=1" vertex="1" parent="1">
          <mxGeometry x="100" y="220" width="110" height="20" as="geometry" />
        </mxCell>
        <mxCell id="35pCFbQcWWkVKPk1xscO-3" value="&lt;b&gt;&lt;font style=&quot;font-size: 18px&quot;&gt;Cluster segregated by namespace&lt;/font&gt;&lt;/b&gt;" style="text;html=1;strokeColor=none;fillColor=none;align=center;verticalAlign=middle;whiteSpace=wrap;rounded=0;" vertex="1" parent="1">
          <mxGeometry x="60" y="30" width="300" height="20" as="geometry" />
        </mxCell>
        <mxCell id="35pCFbQcWWkVKPk1xscO-4" value="Seldon Deploy" style="rounded=1;whiteSpace=wrap;html=1;" vertex="1" parent="1">
          <mxGeometry x="200" y="260" width="120" height="60" as="geometry" />
        </mxCell>
        <mxCell id="35pCFbQcWWkVKPk1xscO-5" value="" style="rounded=0;whiteSpace=wrap;html=1;" vertex="1" parent="1">
          <mxGeometry x="90" y="450" width="590" height="300" as="geometry" />
        </mxCell>
        <mxCell id="35pCFbQcWWkVKPk1xscO-6" value="" style="rounded=0;whiteSpace=wrap;html=1;" vertex="1" parent="1">
          <mxGeometry x="90" y="70" width="590" height="140" as="geometry" />
        </mxCell>
        <mxCell id="35pCFbQcWWkVKPk1xscO-7" value="argocd" style="text;html=1;strokeColor=none;fillColor=none;align=center;verticalAlign=middle;whiteSpace=wrap;rounded=0;fontStyle=1" vertex="1" parent="1">
          <mxGeometry x="100" y="80" width="80" height="20" as="geometry" />
        </mxCell>
        <mxCell id="35pCFbQcWWkVKPk1xscO-8" value="argocd" style="rounded=1;whiteSpace=wrap;html=1;" vertex="1" parent="1">
          <mxGeometry x="200" y="120" width="120" height="60" as="geometry" />
        </mxCell>
        <mxCell id="35pCFbQcWWkVKPk1xscO-10" value="&lt;h1&gt;&lt;font size=&quot;3&quot; style=&quot;font-weight: normal&quot;&gt;Syncs configured git repos to cluster&lt;/font&gt;&lt;/h1&gt;&lt;h1&gt;&lt;font size=&quot;3&quot; style=&quot;font-weight: normal&quot;&gt;ClusterRoles needed to read all resources&lt;/font&gt;&lt;/h1&gt;&lt;div&gt;&lt;font size=&quot;3&quot;&gt;Write can be per-namespace Role or ClusterRole&lt;/font&gt;&lt;/div&gt;" style="text;html=1;strokeColor=none;fillColor=none;spacing=5;spacingTop=-20;whiteSpace=wrap;overflow=hidden;rounded=0;" vertex="1" parent="1">
          <mxGeometry x="340" y="73" width="340" height="137" as="geometry" />
        </mxCell>
        <mxCell id="35pCFbQcWWkVKPk1xscO-12" value="&lt;h1&gt;&lt;font size=&quot;3&quot; style=&quot;font-weight: normal&quot;&gt;Pushes to git and monitors ML resources in labelled namespaces&lt;/font&gt;&lt;/h1&gt;&lt;div&gt;&lt;font size=&quot;3&quot; style=&quot;font-weight: normal&quot;&gt;Labels decide which users can do what in namespace (IDP/LDAP user, not k8s user)&lt;/font&gt;&lt;/div&gt;&lt;h1&gt;&lt;font size=&quot;3&quot; style=&quot;font-weight: normal&quot;&gt;ClusterRoles needed to read namespaces&lt;/font&gt;&lt;/h1&gt;&lt;div&gt;&lt;font size=&quot;3&quot;&gt;Write can be per-namespace Role or ClusterRole&lt;/font&gt;&lt;/div&gt;" style="text;html=1;strokeColor=none;fillColor=none;spacing=5;spacingTop=-20;whiteSpace=wrap;overflow=hidden;rounded=0;" vertex="1" parent="1">
          <mxGeometry x="340" y="220" width="340" height="220" as="geometry" />
        </mxCell>
        <mxCell id="35pCFbQcWWkVKPk1xscO-13" value="user namespace 1" style="text;html=1;strokeColor=none;fillColor=none;align=center;verticalAlign=middle;whiteSpace=wrap;rounded=0;fontStyle=1" vertex="1" parent="1">
          <mxGeometry x="100" y="460" width="80" height="20" as="geometry" />
        </mxCell>
        <mxCell id="35pCFbQcWWkVKPk1xscO-14" value="request logger" style="rounded=1;whiteSpace=wrap;html=1;" vertex="1" parent="1">
          <mxGeometry x="130" y="600" width="120" height="60" as="geometry" />
        </mxCell>
        <mxCell id="35pCFbQcWWkVKPk1xscO-15" value="ML model 1" style="rounded=1;whiteSpace=wrap;html=1;" vertex="1" parent="1">
          <mxGeometry x="130" y="510" width="120" height="60" as="geometry" />
        </mxCell>
        <mxCell id="35pCFbQcWWkVKPk1xscO-16" value="ML model 2" style="rounded=1;whiteSpace=wrap;html=1;" vertex="1" parent="1">
          <mxGeometry x="290" y="510" width="120" height="60" as="geometry" />
        </mxCell>
        <mxCell id="35pCFbQcWWkVKPk1xscO-17" value="load tests" style="rounded=1;whiteSpace=wrap;html=1;" vertex="1" parent="1">
          <mxGeometry x="130" y="680" width="120" height="60" as="geometry" />
        </mxCell>
        <mxCell id="35pCFbQcWWkVKPk1xscO-18" value="&lt;h1&gt;&lt;font size=&quot;3&quot;&gt;&lt;span style=&quot;font-weight: 400&quot;&gt;Labelled to limit which deploy users can access in UI&lt;/span&gt;&lt;/font&gt;&lt;/h1&gt;&lt;div&gt;&lt;font size=&quot;3&quot;&gt;Annotated with git repo name for deploy to push to&lt;/font&gt;&lt;/div&gt;&lt;div&gt;&lt;font size=&quot;3&quot;&gt;&lt;br&gt;&lt;/font&gt;&lt;/div&gt;&lt;div&gt;&lt;font size=&quot;3&quot;&gt;&lt;span style=&quot;font-weight: 400&quot;&gt;Synced by argocd if argocd app created&lt;/span&gt;&lt;/font&gt;&lt;/div&gt;&lt;div&gt;&lt;font size=&quot;3&quot;&gt;&lt;span style=&quot;font-weight: 400&quot;&gt;&lt;br&gt;&lt;/span&gt;&lt;/font&gt;&lt;/div&gt;&lt;div&gt;&lt;font size=&quot;3&quot;&gt;&lt;span style=&quot;font-weight: 400&quot;&gt;Logger sends to elastic, creating index per model&lt;/span&gt;&lt;/font&gt;&lt;/div&gt;" style="text;html=1;strokeColor=none;fillColor=none;spacing=5;spacingTop=-20;whiteSpace=wrap;overflow=hidden;rounded=0;" vertex="1" parent="1">
          <mxGeometry x="270" y="580" width="400" height="160" as="geometry" />
        </mxCell>
        <mxCell id="35pCFbQcWWkVKPk1xscO-19" value="" style="rounded=0;whiteSpace=wrap;html=1;" vertex="1" parent="1">
          <mxGeometry x="90" y="750" width="590" height="170" as="geometry" />
        </mxCell>
        <mxCell id="35pCFbQcWWkVKPk1xscO-20" value="department&lt;br&gt;namespace 1" style="text;html=1;strokeColor=none;fillColor=none;align=center;verticalAlign=middle;whiteSpace=wrap;rounded=0;fontStyle=1" vertex="1" parent="1">
          <mxGeometry x="110" y="760" width="80" height="20" as="geometry" />
        </mxCell>
        <mxCell id="35pCFbQcWWkVKPk1xscO-21" value="ML models..." style="rounded=1;whiteSpace=wrap;html=1;" vertex="1" parent="1">
          <mxGeometry x="130" y="792" width="120" height="60" as="geometry" />
        </mxCell>
        <mxCell id="35pCFbQcWWkVKPk1xscO-23" value="request logger" style="rounded=1;whiteSpace=wrap;html=1;" vertex="1" parent="1">
          <mxGeometry x="270" y="792" width="120" height="60" as="geometry" />
        </mxCell>
        <mxCell id="35pCFbQcWWkVKPk1xscO-24" value="&lt;h1&gt;&lt;font size=&quot;3&quot;&gt;&lt;span style=&quot;font-weight: 400&quot;&gt;As above but different labels&lt;/span&gt;&lt;/font&gt;&lt;/h1&gt;&lt;div&gt;&lt;font size=&quot;3&quot;&gt;&lt;span style=&quot;font-weight: 400&quot;&gt;Label contains which LDAP group is required to read/write&lt;/span&gt;&lt;/font&gt;&lt;/div&gt;&lt;div&gt;&lt;font size=&quot;3&quot;&gt;&lt;span style=&quot;font-weight: 400&quot;&gt;&lt;br&gt;&lt;/span&gt;&lt;/font&gt;&lt;/div&gt;&lt;div&gt;&lt;font size=&quot;3&quot;&gt;&lt;span style=&quot;font-weight: 400&quot;&gt;User and group labels can be combined&lt;/span&gt;&lt;/font&gt;&lt;/div&gt;" style="text;html=1;strokeColor=none;fillColor=none;spacing=5;spacingTop=-20;whiteSpace=wrap;overflow=hidden;rounded=0;" vertex="1" parent="1">
          <mxGeometry x="400" y="760" width="260" height="150" as="geometry" />
        </mxCell>
        <mxCell id="35pCFbQcWWkVKPk1xscO-25" value="load tests" style="rounded=1;whiteSpace=wrap;html=1;" vertex="1" parent="1">
          <mxGeometry x="180" y="858" width="120" height="60" as="geometry" />
        </mxCell>
        <mxCell id="35pCFbQcWWkVKPk1xscO-26" value="" style="rounded=0;whiteSpace=wrap;html=1;" vertex="1" parent="1">
          <mxGeometry x="90" y="920" width="590" height="170" as="geometry" />
        </mxCell>
        <mxCell id="35pCFbQcWWkVKPk1xscO-27" value="logs" style="text;html=1;strokeColor=none;fillColor=none;align=center;verticalAlign=middle;whiteSpace=wrap;rounded=0;fontStyle=1" vertex="1" parent="1">
          <mxGeometry x="120" y="930" width="80" height="20" as="geometry" />
        </mxCell>
        <mxCell id="35pCFbQcWWkVKPk1xscO-28" value="elasticsearch" style="rounded=1;whiteSpace=wrap;html=1;" vertex="1" parent="1">
          <mxGeometry x="120" y="950" width="120" height="60" as="geometry" />
        </mxCell>
        <mxCell id="35pCFbQcWWkVKPk1xscO-29" value="kibana" style="rounded=1;whiteSpace=wrap;html=1;" vertex="1" parent="1">
          <mxGeometry x="122" y="1020" width="120" height="60" as="geometry" />
        </mxCell>
        <mxCell id="35pCFbQcWWkVKPk1xscO-30" value="&lt;h1&gt;&lt;font size=&quot;3&quot;&gt;&lt;span style=&quot;font-weight: 400&quot;&gt;Destination that all req/responses logged to&lt;/span&gt;&lt;/font&gt;&lt;/h1&gt;&lt;div&gt;&lt;font size=&quot;3&quot;&gt;&lt;span style=&quot;font-weight: 400&quot;&gt;Separate indexes per model&lt;/span&gt;&lt;/font&gt;&lt;/div&gt;&lt;div&gt;&lt;font size=&quot;3&quot;&gt;&lt;span style=&quot;font-weight: 400&quot;&gt;&lt;br&gt;&lt;/span&gt;&lt;/font&gt;&lt;/div&gt;&lt;div&gt;&lt;font size=&quot;3&quot;&gt;Permissions per index can be set on elastic (an elastic feature, not part of deploy&#39;s scope)&lt;/font&gt;&lt;/div&gt;" style="text;html=1;strokeColor=none;fillColor=none;spacing=5;spacingTop=-20;whiteSpace=wrap;overflow=hidden;rounded=0;" vertex="1" parent="1">
          <mxGeometry x="320" y="928" width="330" height="150" as="geometry" />
        </mxCell>
      </root>
    </mxGraphModel>
  </diagram>
</mxfile>
